<svg width="20" height="27" viewBox="0 0 20 27" fill="none" xmlns="http://www.w3.org/2000/svg">
<path fill-rule="evenodd" clip-rule="evenodd" d="M7.07373 0V3.375H7.91748V0H7.07373ZM12.4758 2.17423L9.85298 4.29818L10.384 4.9539L13.0068 2.82995L12.4758 2.17423ZM14.1675 7.85736L10.879 7.09815L10.6892 7.92027L13.9777 8.67948L14.1675 7.85736ZM1.01351 8.67948L4.30201 7.92027L4.11221 7.09815L0.823706 7.85736L1.01351 8.67948ZM1.98438 2.82995L4.60724 4.9539L5.13823 4.29818L2.51536 2.17423L1.98438 2.82995ZM12.557 26.1562C16.0526 26.1562 18.8862 23.1312 18.8862 19.8281C18.8862 19.8281 18.8862 21.7799 18.8862 19.8281V16.6634V14.767C18.8862 14.0673 18.3245 13.5 17.6206 13.5C16.9216 13.5 16.355 14.0663 16.355 14.767V15.1875H15.5112V13.0836C15.5112 12.3816 14.9495 11.8125 14.2456 11.8125C13.5466 11.8125 12.98 12.3791 12.98 13.0836V14.3438H12.1362V12.2398C12.1362 11.5378 11.5745 10.9688 10.8706 10.9688C10.1716 10.9688 9.60498 11.5354 9.60498 12.2398V15.1875H8.76123V6.33255C8.76123 5.63112 8.19946 5.0625 7.4956 5.0625C6.79662 5.0625 6.22998 5.62539 6.22998 6.33255V15.8625C4.49321 14.0059 2.20667 11.9636 1.2696 12.9058C0.352301 13.828 2.71607 16.3694 6.01683 21.9232C7.50404 24.4256 9.38585 26.1559 12.557 26.1562ZM19.73 19.8281C19.73 23.789 16.519 27 12.5581 27C9.93158 27 7.15963 25.7744 5.25192 22.2988C2.49835 17.2821 -1.02302 13.9921 0.653732 12.3153C1.85325 11.1158 3.73656 12.2666 5.38623 13.8095V6.33522C5.38623 5.15988 6.33063 4.21875 7.4956 4.21875C8.6687 4.21875 9.60498 5.16633 9.60498 6.33522V10.5455C9.95752 10.2814 10.3957 10.125 10.8706 10.125C11.784 10.125 12.5538 10.6966 12.8499 11.4987C13.2218 11.1696 13.7104 10.9688 14.2456 10.9688C15.4187 10.9688 16.355 11.9123 16.355 13.0761V13.0875C16.7075 12.8237 17.1457 12.6682 17.6206 12.6682C18.7937 12.6682 19.73 13.6127 19.73 14.7777V19.8281Z" fill="white"/>
</svg>
